<svg width="64" height="64" viewBox="0 0 64 64" fill="none" xmlns="http://www.w3.org/2000/svg">
<g clip-path="url(#clip0)">
<g filter="url(#filter0_d)">
<circle cx="32" cy="32" r="28" fill="#FF0000"/>
<circle cx="32" cy="32" r="28.5" stroke="white"/>
</g>
<path d="M19.088 38.608V33.664H30.08V38.608H19.088ZM19.088 25.936H30.08V30.832H19.088V25.936ZM44.912 25.936V30.832H33.68V25.936H44.912ZM44.912 38.608H33.68V33.664H44.912V38.608ZM53.504 45.472H33.68V41.536H48.464V22.96H33.68V19.456H51.872V16.192H33.68V11.872H30.08V16.192H12.128V19.456H30.08V22.96H15.68V41.536H30.08V45.472H10.688V48.688H30.08V55.792H33.68V48.688H53.504V45.472Z" fill="white"/>
</g>
<defs>
<filter id="filter0_d" x="-7" y="-7" width="78" height="78" filterUnits="userSpaceOnUse" color-interpolation-filters="sRGB">
<feFlood flood-opacity="0" result="BackgroundImageFix"/>
<feColorMatrix in="SourceAlpha" type="matrix" values="0 0 0 0 0 0 0 0 0 0 0 0 0 0 0 0 0 0 127 0" result="hardAlpha"/>
<feOffset/>
<feGaussianBlur stdDeviation="5"/>
<feComposite in2="hardAlpha" operator="out"/>
<feColorMatrix type="matrix" values="0 0 0 0 1 0 0 0 0 1 0 0 0 0 1 0 0 0 0.5 0"/>
<feBlend mode="normal" in2="BackgroundImageFix" result="effect1_dropShadow"/>
<feBlend mode="normal" in="SourceGraphic" in2="effect1_dropShadow" result="shape"/>
</filter>
<clipPath id="clip0">
<rect width="64" height="64" rx="32" fill="white"/>
</clipPath>
</defs>
</svg>
